<svg width="150" height="150" viewBox="0 0 150 150" fill="none" xmlns="http://www.w3.org/2000/svg">
<path d="M0 0H150V150H0V0Z" fill="#A3A3A3"/>
<path d="M35.2489 63.2727H36.3058V69.0511C36.3058 69.6477 36.1651 70.1804 35.8839 70.6491C35.6055 71.1151 35.212 71.483 34.7035 71.7528C34.195 72.0199 33.5984 72.1534 32.9137 72.1534C32.229 72.1534 31.6325 72.0199 31.1239 71.7528C30.6154 71.483 30.2205 71.1151 29.9393 70.6491C29.6609 70.1804 29.5217 69.6477 29.5217 69.0511V63.2727H30.5785V68.9659C30.5785 69.392 30.6722 69.7713 30.8597 70.1037C31.0472 70.4332 31.3143 70.6932 31.6609 70.8835C32.0103 71.071 32.4279 71.1648 32.9137 71.1648C33.3995 71.1648 33.8171 71.071 34.1665 70.8835C34.516 70.6932 34.783 70.4332 34.9677 70.1037C35.1552 69.7713 35.2489 69.392 35.2489 68.9659V63.2727Z" fill="black"/>
<path d="M42.9162 66.9205L42.0128 67.1761C41.956 67.0256 41.8722 66.8793 41.7614 66.7372C41.6534 66.5923 41.5057 66.473 41.3182 66.3793C41.1307 66.2855 40.8906 66.2386 40.598 66.2386C40.1974 66.2386 39.8636 66.331 39.5966 66.5156C39.3324 66.6974 39.2003 66.929 39.2003 67.2102C39.2003 67.4602 39.2912 67.6577 39.473 67.8026C39.6548 67.9474 39.9389 68.0682 40.3253 68.1648L41.2969 68.4034C41.8821 68.5455 42.3182 68.7628 42.6051 69.0554C42.892 69.3452 43.0355 69.7188 43.0355 70.1761C43.0355 70.5511 42.9276 70.8864 42.7116 71.1818C42.4986 71.4773 42.2003 71.7102 41.8168 71.8807C41.4332 72.0511 40.9872 72.1364 40.4787 72.1364C39.8111 72.1364 39.2585 71.9915 38.821 71.7017C38.3835 71.4119 38.1065 70.9886 37.9901 70.4318L38.9446 70.1932C39.0355 70.5455 39.2074 70.8097 39.4602 70.9858C39.7159 71.1619 40.0497 71.25 40.4616 71.25C40.9304 71.25 41.3026 71.1506 41.5781 70.9517C41.8565 70.75 41.9957 70.5085 41.9957 70.2273C41.9957 70 41.9162 69.8097 41.7571 69.6562C41.598 69.5 41.3537 69.3835 41.0241 69.3068L39.9332 69.0511C39.3338 68.9091 38.8935 68.6889 38.6122 68.3906C38.3338 68.0895 38.1946 67.7131 38.1946 67.2614C38.1946 66.892 38.2983 66.5653 38.5057 66.2812C38.7159 65.9972 39.0014 65.7741 39.3622 65.6122C39.7259 65.4503 40.1378 65.3693 40.598 65.3693C41.2457 65.3693 41.7543 65.5114 42.1236 65.7955C42.4957 66.0795 42.7599 66.4545 42.9162 66.9205Z" fill="black"/>
<path d="M47.2937 72.1364C46.663 72.1364 46.119 71.9972 45.6616 71.7188C45.207 71.4375 44.8562 71.0455 44.609 70.5426C44.3647 70.0369 44.2425 69.4489 44.2425 68.7784C44.2425 68.108 44.3647 67.517 44.609 67.0057C44.8562 66.4915 45.1999 66.0909 45.6403 65.804C46.0835 65.5142 46.6005 65.3693 47.1914 65.3693C47.5323 65.3693 47.869 65.4261 48.2014 65.5398C48.5337 65.6534 48.8363 65.8381 49.109 66.0938C49.3817 66.3466 49.5991 66.6818 49.761 67.0994C49.9229 67.517 50.0039 68.0312 50.0039 68.642V69.0682H44.9585V68.1989H48.9812C48.9812 67.8295 48.9073 67.5 48.7596 67.2102C48.6147 66.9205 48.4073 66.6918 48.1374 66.5241C47.8704 66.3565 47.555 66.2727 47.1914 66.2727C46.7908 66.2727 46.4442 66.3722 46.1516 66.571C45.8619 66.767 45.6389 67.0227 45.4826 67.3381C45.3264 67.6534 45.2482 67.9915 45.2482 68.3523V68.9318C45.2482 69.4261 45.3335 69.8452 45.5039 70.1889C45.6772 70.5298 45.9173 70.7898 46.2241 70.9688C46.5309 71.1449 46.8874 71.233 47.2937 71.233C47.5579 71.233 47.7965 71.196 48.0096 71.1222C48.2255 71.0455 48.4116 70.9318 48.5678 70.7812C48.7241 70.6278 48.8448 70.4375 48.93 70.2102L49.9016 70.483C49.7994 70.8125 49.6275 71.1023 49.386 71.3523C49.1445 71.5994 48.8462 71.7926 48.4911 71.9318C48.136 72.0682 47.7369 72.1364 47.2937 72.1364Z" fill="black"/>
<path d="M51.5337 72V65.4545H52.5053V66.4432H52.5735C52.6928 66.1193 52.9087 65.8565 53.2212 65.6548C53.5337 65.4531 53.886 65.3523 54.2781 65.3523C54.3519 65.3523 54.4442 65.3537 54.555 65.3565C54.6658 65.3594 54.7496 65.3636 54.8065 65.3693V66.392C54.7724 66.3835 54.6942 66.3707 54.5721 66.3537C54.4528 66.3338 54.3263 66.3239 54.1928 66.3239C53.8746 66.3239 53.5906 66.3906 53.3406 66.5241C53.0934 66.6548 52.8974 66.8366 52.7525 67.0696C52.6104 67.2997 52.5394 67.5625 52.5394 67.858V72H51.5337Z" fill="black"/>
<path d="M63.4986 69.3239V65.4545H64.5043V72H63.4986V70.892H63.4304C63.277 71.2244 63.0384 71.5071 62.7145 71.7401C62.3906 71.9702 61.9815 72.0852 61.4872 72.0852C61.0781 72.0852 60.7145 71.9957 60.3963 71.8168C60.0781 71.6349 59.8281 71.3622 59.6463 70.9986C59.4645 70.6321 59.3736 70.1705 59.3736 69.6136V65.4545H60.3793V69.5455C60.3793 70.0227 60.5128 70.4034 60.7798 70.6875C61.0497 70.9716 61.3935 71.1136 61.8111 71.1136C62.0611 71.1136 62.3153 71.0497 62.5739 70.9219C62.8352 70.794 63.054 70.598 63.2301 70.3338C63.4091 70.0696 63.4986 69.733 63.4986 69.3239Z" fill="black"/>
<path d="M66.3462 74.4545V65.4545H67.3178V66.4943H67.4371C67.511 66.3807 67.6133 66.2358 67.744 66.0597C67.8775 65.8807 68.0678 65.7216 68.315 65.5824C68.565 65.4403 68.9031 65.3693 69.3292 65.3693C69.8803 65.3693 70.3661 65.5071 70.7866 65.7827C71.207 66.0582 71.5352 66.4489 71.771 66.9545C72.0067 67.4602 72.1246 68.0568 72.1246 68.7443C72.1246 69.4375 72.0067 70.0384 71.771 70.5469C71.5352 71.0526 71.2085 71.4446 70.7908 71.723C70.3732 71.9986 69.8917 72.1364 69.3462 72.1364C68.9258 72.1364 68.5891 72.0668 68.3363 71.9276C68.0835 71.7855 67.8889 71.625 67.7525 71.446C67.6161 71.2642 67.511 71.1136 67.4371 70.9943H67.3519V74.4545H66.3462ZM67.3349 68.7273C67.3349 69.2216 67.4073 69.6577 67.5522 70.0355C67.6971 70.4105 67.9087 70.7045 68.1871 70.9176C68.4656 71.1278 68.8065 71.233 69.2099 71.233C69.6303 71.233 69.9812 71.1222 70.2624 70.9006C70.5465 70.6761 70.7596 70.375 70.9016 69.9972C71.0465 69.6165 71.119 69.1932 71.119 68.7273C71.119 68.267 71.0479 67.8523 70.9059 67.483C70.7667 67.1108 70.555 66.8168 70.271 66.6009C69.9897 66.3821 69.636 66.2727 69.2099 66.2727C68.8008 66.2727 68.457 66.3764 68.1786 66.5838C67.9002 66.7884 67.69 67.0753 67.5479 67.4446C67.4059 67.8111 67.3349 68.2386 67.3349 68.7273Z" fill="black"/>
<path d="M74.6644 63.2727V72H73.6587V63.2727H74.6644Z" fill="black"/>
<path d="M79.1655 72.1364C78.5746 72.1364 78.0561 71.9957 77.6101 71.7145C77.1669 71.4332 76.8203 71.0398 76.5703 70.5341C76.3232 70.0284 76.1996 69.4375 76.1996 68.7614C76.1996 68.0795 76.3232 67.4844 76.5703 66.9759C76.8203 66.4673 77.1669 66.0724 77.6101 65.7912C78.0561 65.5099 78.5746 65.3693 79.1655 65.3693C79.7564 65.3693 80.2734 65.5099 80.7166 65.7912C81.1626 66.0724 81.5092 66.4673 81.7564 66.9759C82.0064 67.4844 82.1314 68.0795 82.1314 68.7614C82.1314 69.4375 82.0064 70.0284 81.7564 70.5341C81.5092 71.0398 81.1626 71.4332 80.7166 71.7145C80.2734 71.9957 79.7564 72.1364 79.1655 72.1364ZM79.1655 71.233C79.6143 71.233 79.9837 71.1179 80.2734 70.8878C80.5632 70.6577 80.7777 70.3551 80.9169 69.9801C81.0561 69.6051 81.1257 69.1989 81.1257 68.7614C81.1257 68.3239 81.0561 67.9162 80.9169 67.5384C80.7777 67.1605 80.5632 66.8551 80.2734 66.6222C79.9837 66.3892 79.6143 66.2727 79.1655 66.2727C78.7166 66.2727 78.3473 66.3892 78.0575 66.6222C77.7678 66.8551 77.5533 67.1605 77.4141 67.5384C77.2749 67.9162 77.2053 68.3239 77.2053 68.7614C77.2053 69.1989 77.2749 69.6051 77.4141 69.9801C77.5533 70.3551 77.7678 70.6577 78.0575 70.8878C78.3473 71.1179 78.7166 71.233 79.1655 71.233Z" fill="black"/>
<path d="M85.5927 72.1534C85.1779 72.1534 84.8015 72.0753 84.4634 71.919C84.1254 71.7599 83.8569 71.5313 83.658 71.233C83.4592 70.9318 83.3597 70.5682 83.3597 70.142C83.3597 69.767 83.4336 69.4631 83.5813 69.2301C83.729 68.9943 83.9265 68.8097 84.1737 68.6761C84.4208 68.5426 84.6935 68.4432 84.9918 68.3778C85.293 68.3097 85.5955 68.2557 85.8995 68.2159C86.2972 68.1648 86.6197 68.1264 86.8668 68.1009C87.1168 68.0724 87.2986 68.0256 87.4123 67.9602C87.5288 67.8949 87.587 67.7812 87.587 67.6193V67.5852C87.587 67.1648 87.4719 66.8381 87.2418 66.6051C87.0146 66.3722 86.6694 66.2557 86.2063 66.2557C85.7262 66.2557 85.3498 66.3608 85.0771 66.571C84.8043 66.7812 84.6126 67.0057 84.5018 67.2443L83.5472 66.9034C83.7177 66.5057 83.945 66.196 84.229 65.9744C84.516 65.75 84.8285 65.5938 85.1665 65.5057C85.5075 65.4148 85.8427 65.3693 86.1722 65.3693C86.3825 65.3693 86.6239 65.3949 86.8967 65.446C87.1722 65.4943 87.4379 65.5952 87.6935 65.7486C87.9521 65.902 88.1666 66.1335 88.337 66.4432C88.5075 66.7528 88.5927 67.1676 88.5927 67.6875V72H87.587V71.1136H87.5359C87.4677 71.2557 87.354 71.4077 87.195 71.5696C87.0359 71.7315 86.8242 71.8693 86.56 71.983C86.2958 72.0966 85.9734 72.1534 85.5927 72.1534ZM85.7461 71.25C86.1438 71.25 86.4791 71.1719 86.7518 71.0156C87.0273 70.8594 87.2347 70.6577 87.3739 70.4105C87.516 70.1634 87.587 69.9034 87.587 69.6307V68.7102C87.5444 68.7614 87.4506 68.8082 87.3058 68.8509C87.1637 68.8906 86.9989 68.9261 86.8114 68.9574C86.6268 68.9858 86.4464 69.0114 86.2702 69.0341C86.0969 69.054 85.9563 69.071 85.8484 69.0852C85.587 69.1193 85.3427 69.1747 85.1154 69.2514C84.891 69.3253 84.7092 69.4375 84.57 69.5881C84.4336 69.7358 84.3654 69.9375 84.3654 70.1932C84.3654 70.5426 84.4947 70.8068 84.7532 70.9858C85.0146 71.1619 85.3455 71.25 85.7461 71.25Z" fill="black"/>
<path d="M92.8999 72.1364C92.3544 72.1364 91.8729 71.9986 91.4553 71.723C91.0376 71.4446 90.7109 71.0526 90.4751 70.5469C90.2393 70.0384 90.1215 69.4375 90.1215 68.7443C90.1215 68.0568 90.2393 67.4602 90.4751 66.9545C90.7109 66.4489 91.0391 66.0582 91.4595 65.7827C91.88 65.5071 92.3658 65.3693 92.9169 65.3693C93.343 65.3693 93.6797 65.4403 93.9268 65.5824C94.1768 65.7216 94.3672 65.8807 94.4979 66.0597C94.6314 66.2358 94.7351 66.3807 94.809 66.4943H94.8942V63.2727H95.8999V72H94.9283V70.9943H94.809C94.7351 71.1136 94.63 71.2642 94.4936 71.446C94.3572 71.625 94.1626 71.7855 93.9098 71.9276C93.657 72.0668 93.3203 72.1364 92.8999 72.1364ZM93.0362 71.233C93.4396 71.233 93.7805 71.1278 94.059 70.9176C94.3374 70.7045 94.549 70.4105 94.6939 70.0355C94.8388 69.6577 94.9112 69.2216 94.9112 68.7273C94.9112 68.2386 94.8402 67.8111 94.6982 67.4446C94.5561 67.0753 94.3459 66.7884 94.0675 66.5838C93.7891 66.3764 93.4453 66.2727 93.0362 66.2727C92.6101 66.2727 92.255 66.3821 91.9709 66.6009C91.6896 66.8168 91.478 67.1108 91.3359 67.483C91.1967 67.8523 91.1271 68.267 91.1271 68.7273C91.1271 69.1932 91.1982 69.6165 91.3402 69.9972C91.4851 70.375 91.6982 70.6761 91.9794 70.9006C92.2635 71.1222 92.6158 71.233 93.0362 71.233Z" fill="black"/>
<path d="M100.626 72.1364C99.995 72.1364 99.451 71.9972 98.9936 71.7188C98.5391 71.4375 98.1882 71.0455 97.941 70.5426C97.6967 70.0369 97.5746 69.4489 97.5746 68.7784C97.5746 68.108 97.6967 67.517 97.941 67.0057C98.1882 66.4915 98.532 66.0909 98.9723 65.804C99.4155 65.5142 99.9325 65.3693 100.523 65.3693C100.864 65.3693 101.201 65.4261 101.533 65.5398C101.866 65.6534 102.168 65.8381 102.441 66.0938C102.714 66.3466 102.931 66.6818 103.093 67.0994C103.255 67.517 103.336 68.0312 103.336 68.642V69.0682H98.2905V68.1989H102.313C102.313 67.8295 102.239 67.5 102.092 67.2102C101.947 66.9205 101.739 66.6918 101.469 66.5241C101.202 66.3565 100.887 66.2727 100.523 66.2727C100.123 66.2727 99.7763 66.3722 99.4837 66.571C99.1939 66.767 98.9709 67.0227 98.8146 67.3381C98.6584 67.6534 98.5803 67.9915 98.5803 68.3523V68.9318C98.5803 69.4261 98.6655 69.8452 98.8359 70.1889C99.0092 70.5298 99.2493 70.7898 99.5561 70.9688C99.8629 71.1449 100.219 71.233 100.626 71.233C100.89 71.233 101.129 71.196 101.342 71.1222C101.558 71.0455 101.744 70.9318 101.9 70.7812C102.056 70.6278 102.177 70.4375 102.262 70.2102L103.234 70.483C103.131 70.8125 102.96 71.1023 102.718 71.3523C102.477 71.5994 102.178 71.7926 101.823 71.9318C101.468 72.0682 101.069 72.1364 100.626 72.1364Z" fill="black"/>
<path d="M107.337 72.1364C106.792 72.1364 106.31 71.9986 105.893 71.723C105.475 71.4446 105.148 71.0526 104.913 70.5469C104.677 70.0384 104.559 69.4375 104.559 68.7443C104.559 68.0568 104.677 67.4602 104.913 66.9545C105.148 66.4489 105.477 66.0582 105.897 65.7827C106.317 65.5071 106.803 65.3693 107.354 65.3693C107.781 65.3693 108.117 65.4403 108.364 65.5824C108.614 65.7216 108.805 65.8807 108.935 66.0597C109.069 66.2358 109.173 66.3807 109.246 66.4943H109.332V63.2727H110.337V72H109.366V70.9943H109.246C109.173 71.1136 109.067 71.2642 108.931 71.446C108.795 71.625 108.6 71.7855 108.347 71.9276C108.094 72.0668 107.758 72.1364 107.337 72.1364ZM107.474 71.233C107.877 71.233 108.218 71.1278 108.496 70.9176C108.775 70.7045 108.987 70.4105 109.131 70.0355C109.276 69.6577 109.349 69.2216 109.349 68.7273C109.349 68.2386 109.278 67.8111 109.136 67.4446C108.994 67.0753 108.783 66.7884 108.505 66.5838C108.227 66.3764 107.883 66.2727 107.474 66.2727C107.048 66.2727 106.692 66.3821 106.408 66.6009C106.127 66.8168 105.915 67.1108 105.773 67.483C105.634 67.8523 105.565 68.267 105.565 68.7273C105.565 69.1932 105.636 69.6165 105.778 69.9972C105.923 70.375 106.136 70.6761 106.417 70.9006C106.701 71.1222 107.053 71.233 107.474 71.233Z" fill="black"/>
<path d="M117.62 72.1534C117.205 72.1534 116.829 72.0753 116.491 71.919C116.153 71.7599 115.884 71.5313 115.685 71.233C115.487 70.9318 115.387 70.5682 115.387 70.142C115.387 69.767 115.461 69.4631 115.609 69.2301C115.756 68.9943 115.954 68.8097 116.201 68.6761C116.448 68.5426 116.721 68.4432 117.019 68.3778C117.32 68.3097 117.623 68.2557 117.927 68.2159C118.325 68.1648 118.647 68.1264 118.894 68.1009C119.144 68.0724 119.326 68.0256 119.44 67.9602C119.556 67.8949 119.614 67.7812 119.614 67.6193V67.5852C119.614 67.1648 119.499 66.8381 119.269 66.6051C119.042 66.3722 118.697 66.2557 118.234 66.2557C117.754 66.2557 117.377 66.3608 117.104 66.571C116.832 66.7812 116.64 67.0057 116.529 67.2443L115.575 66.9034C115.745 66.5057 115.972 66.196 116.256 65.9744C116.543 65.75 116.856 65.5938 117.194 65.5057C117.535 65.4148 117.87 65.3693 118.2 65.3693C118.41 65.3693 118.651 65.3949 118.924 65.446C119.2 65.4943 119.465 65.5952 119.721 65.7486C119.979 65.902 120.194 66.1335 120.364 66.4432C120.535 66.7528 120.62 67.1676 120.62 67.6875V72H119.614V71.1136H119.563C119.495 71.2557 119.381 71.4077 119.222 71.5696C119.063 71.7315 118.852 71.8693 118.587 71.983C118.323 72.0966 118.001 72.1534 117.62 72.1534ZM117.773 71.25C118.171 71.25 118.506 71.1719 118.779 71.0156C119.055 70.8594 119.262 70.6577 119.401 70.4105C119.543 70.1634 119.614 69.9034 119.614 69.6307V68.7102C119.572 68.7614 119.478 68.8082 119.333 68.8509C119.191 68.8906 119.026 68.9261 118.839 68.9574C118.654 68.9858 118.474 69.0114 118.298 69.0341C118.124 69.054 117.984 69.071 117.876 69.0852C117.614 69.1193 117.37 69.1747 117.143 69.2514C116.918 69.3253 116.737 69.4375 116.597 69.5881C116.461 69.7358 116.393 69.9375 116.393 70.1932C116.393 70.5426 116.522 70.8068 116.781 70.9858C117.042 71.1619 117.373 71.25 117.773 71.25Z" fill="black"/>
<path d="M16.3615 87V78.2727H17.3672V81.4943H17.4524C17.5263 81.3807 17.6286 81.2358 17.7592 81.0597C17.8928 80.8807 18.0831 80.7216 18.3303 80.5824C18.5803 80.4403 18.9183 80.3693 19.3445 80.3693C19.8956 80.3693 20.3814 80.5071 20.8018 80.7827C21.2223 81.0582 21.5504 81.4489 21.7862 81.9545C22.022 82.4602 22.1399 83.0568 22.1399 83.7443C22.1399 84.4375 22.022 85.0384 21.7862 85.5469C21.5504 86.0526 21.2237 86.4446 20.8061 86.723C20.3885 86.9986 19.907 87.1364 19.3615 87.1364C18.9411 87.1364 18.6044 87.0668 18.3516 86.9276C18.0987 86.7855 17.9041 86.625 17.7678 86.446C17.6314 86.2642 17.5263 86.1136 17.4524 85.9943H17.3331V87H16.3615ZM17.3501 83.7273C17.3501 84.2216 17.4226 84.6577 17.5675 85.0355C17.7124 85.4105 17.924 85.7045 18.2024 85.9176C18.4808 86.1278 18.8217 86.233 19.2251 86.233C19.6456 86.233 19.9964 86.1222 20.2777 85.9006C20.5618 85.6761 20.7749 85.375 20.9169 84.9972C21.0618 84.6165 21.1342 84.1932 21.1342 83.7273C21.1342 83.267 21.0632 82.8523 20.9212 82.483C20.782 82.1108 20.5703 81.8168 20.2862 81.6009C20.005 81.3821 19.6513 81.2727 19.2251 81.2727C18.8161 81.2727 18.4723 81.3764 18.1939 81.5838C17.9155 81.7884 17.7053 82.0753 17.5632 82.4446C17.4212 82.8111 17.3501 83.2386 17.3501 83.7273Z" fill="black"/>
<path d="M23.6783 87V80.4545H24.6499V81.4432H24.718C24.8374 81.1193 25.0533 80.8565 25.3658 80.6548C25.6783 80.4531 26.0305 80.3523 26.4226 80.3523C26.4964 80.3523 26.5888 80.3537 26.6996 80.3565C26.8104 80.3594 26.8942 80.3636 26.951 80.3693V81.392C26.9169 81.3835 26.8388 81.3707 26.7166 81.3537C26.5973 81.3338 26.4709 81.3239 26.3374 81.3239C26.0192 81.3239 25.7351 81.3906 25.4851 81.5241C25.2379 81.6548 25.0419 81.8366 24.897 82.0696C24.755 82.2997 24.6839 82.5625 24.6839 82.858V87H23.6783Z" fill="black"/>
<path d="M30.603 87.1364C30.0121 87.1364 29.4936 86.9957 29.0476 86.7145C28.6044 86.4332 28.2578 86.0398 28.0078 85.5341C27.7607 85.0284 27.6371 84.4375 27.6371 83.7614C27.6371 83.0795 27.7607 82.4844 28.0078 81.9759C28.2578 81.4673 28.6044 81.0724 29.0476 80.7912C29.4936 80.5099 30.0121 80.3693 30.603 80.3693C31.1939 80.3693 31.7109 80.5099 32.1541 80.7912C32.6001 81.0724 32.9467 81.4673 33.1939 81.9759C33.4439 82.4844 33.5689 83.0795 33.5689 83.7614C33.5689 84.4375 33.4439 85.0284 33.1939 85.5341C32.9467 86.0398 32.6001 86.4332 32.1541 86.7145C31.7109 86.9957 31.1939 87.1364 30.603 87.1364ZM30.603 86.233C31.0518 86.233 31.4212 86.1179 31.7109 85.8878C32.0007 85.6577 32.2152 85.3551 32.3544 84.9801C32.4936 84.6051 32.5632 84.1989 32.5632 83.7614C32.5632 83.3239 32.4936 82.9162 32.3544 82.5384C32.2152 82.1605 32.0007 81.8551 31.7109 81.6222C31.4212 81.3892 31.0518 81.2727 30.603 81.2727C30.1541 81.2727 29.7848 81.3892 29.495 81.6222C29.2053 81.8551 28.9908 82.1605 28.8516 82.5384C28.7124 82.9162 28.6428 83.3239 28.6428 83.7614C28.6428 84.1989 28.7124 84.6051 28.8516 84.9801C28.9908 85.3551 29.2053 85.6577 29.495 85.8878C29.7848 86.1179 30.1541 86.233 30.603 86.233Z" fill="black"/>
<path d="M36.0415 84.6136L36.0245 83.3693H36.229L39.0927 80.4545H40.337L37.2859 83.5398H37.2006L36.0415 84.6136ZM35.104 87V78.2727H36.1097V87H35.104ZM39.2631 87L36.7063 83.7614L37.4222 83.0625L40.5415 87H39.2631Z" fill="black"/>
<path d="M44.1062 87.1364C43.4755 87.1364 42.9315 86.9972 42.4741 86.7188C42.0195 86.4375 41.6687 86.0455 41.4215 85.5426C41.1772 85.0369 41.055 84.4489 41.055 83.7784C41.055 83.108 41.1772 82.517 41.4215 82.0057C41.6687 81.4915 42.0124 81.0909 42.4528 80.804C42.896 80.5142 43.413 80.3693 44.0039 80.3693C44.3448 80.3693 44.6815 80.4261 45.0139 80.5398C45.3462 80.6534 45.6488 80.8381 45.9215 81.0938C46.1942 81.3466 46.4116 81.6818 46.5735 82.0994C46.7354 82.517 46.8164 83.0312 46.8164 83.642V84.0682H41.771V83.1989H45.7937C45.7937 82.8295 45.7198 82.5 45.5721 82.2102C45.4272 81.9205 45.2198 81.6918 44.9499 81.5241C44.6829 81.3565 44.3675 81.2727 44.0039 81.2727C43.6033 81.2727 43.2567 81.3722 42.9641 81.571C42.6744 81.767 42.4514 82.0227 42.2951 82.3381C42.1389 82.6534 42.0607 82.9915 42.0607 83.3523V83.9318C42.0607 84.4261 42.146 84.8452 42.3164 85.1889C42.4897 85.5298 42.7298 85.7898 43.0366 85.9688C43.3434 86.1449 43.6999 86.233 44.1062 86.233C44.3704 86.233 44.609 86.196 44.8221 86.1222C45.038 86.0455 45.2241 85.9318 45.3803 85.7812C45.5366 85.6278 45.6573 85.4375 45.7425 85.2102L46.7141 85.483C46.6119 85.8125 46.44 86.1023 46.1985 86.3523C45.957 86.5994 45.6587 86.7926 45.3036 86.9318C44.9485 87.0682 44.5494 87.1364 44.1062 87.1364Z" fill="black"/>
<path d="M49.3519 83.0625V87H48.3462V80.4545H49.3178V81.4773H49.4031C49.5565 81.1449 49.7894 80.8778 50.1019 80.6761C50.4144 80.4716 50.8178 80.3693 51.3121 80.3693C51.7553 80.3693 52.1431 80.4602 52.4755 80.642C52.8079 80.821 53.0664 81.0938 53.2511 81.4602C53.4357 81.8239 53.5281 82.2841 53.5281 82.8409V87H52.5224V82.9091C52.5224 82.3949 52.3888 81.9943 52.1218 81.7074C51.8548 81.4176 51.4883 81.2727 51.0224 81.2727C50.7014 81.2727 50.4144 81.3423 50.1616 81.4815C49.9116 81.6207 49.7141 81.8239 49.5692 82.0909C49.4244 82.358 49.3519 82.6818 49.3519 83.0625Z" fill="black"/>
<path d="M59.7464 78.2727V87H58.7408V78.2727H59.7464Z" fill="black"/>
<path d="M61.5884 87V80.4545H62.5941V87H61.5884ZM62.0998 79.3636C61.9038 79.3636 61.7347 79.2969 61.5927 79.1634C61.4535 79.0298 61.3839 78.8693 61.3839 78.6818C61.3839 78.4943 61.4535 78.3338 61.5927 78.2003C61.7347 78.0668 61.9038 78 62.0998 78C62.2958 78 62.4634 78.0668 62.6026 78.2003C62.7447 78.3338 62.8157 78.4943 62.8157 78.6818C62.8157 78.8693 62.7447 79.0298 62.6026 79.1634C62.4634 79.2969 62.2958 79.3636 62.0998 79.3636Z" fill="black"/>
<path d="M65.4418 83.0625V87H64.4361V80.4545H65.4077V81.4773H65.4929C65.6463 81.1449 65.8793 80.8778 66.1918 80.6761C66.5043 80.4716 66.9077 80.3693 67.402 80.3693C67.8452 80.3693 68.233 80.4602 68.5653 80.642C68.8977 80.821 69.1563 81.0938 69.3409 81.4602C69.5256 81.8239 69.6179 82.2841 69.6179 82.8409V87H68.6122V82.9091C68.6122 82.3949 68.4787 81.9943 68.2116 81.7074C67.9446 81.4176 67.5781 81.2727 67.1122 81.2727C66.7912 81.2727 66.5043 81.3423 66.2514 81.4815C66.0014 81.6207 65.804 81.8239 65.6591 82.0909C65.5142 82.358 65.4418 82.6818 65.4418 83.0625Z" fill="black"/>
<path d="M72.3931 84.6136L72.3761 83.3693H72.5806L75.4442 80.4545H76.6886L73.6374 83.5398H73.5522L72.3931 84.6136ZM71.4556 87V78.2727H72.4613V87H71.4556ZM75.6147 87L73.0579 83.7614L73.7738 83.0625L76.8931 87H75.6147Z" fill="black"/>
<path d="M88.5 78.2727V79.125H84.5114V78.2727H88.5Z" fill="black"/>
<path d="M92.2884 88.3125L89.4759 77.8636H90.3963L93.2088 88.3125H92.2884Z" fill="black"/>
<path d="M98.918 87V87.9375H93.4634V87H98.918Z" fill="black"/>
<path d="M100.185 83.3182C100.185 82.2443 100.324 81.2571 100.602 80.3565C100.884 79.4531 101.284 78.6222 101.804 77.8636H102.69C102.486 78.1449 102.294 78.4915 102.115 78.9034C101.939 79.3125 101.784 79.7628 101.651 80.2543C101.517 80.7429 101.412 81.2486 101.335 81.7713C101.261 82.294 101.224 82.8097 101.224 83.3182C101.224 83.9943 101.29 84.6804 101.42 85.3764C101.551 86.0724 101.727 86.7187 101.949 87.3153C102.17 87.9119 102.418 88.3977 102.69 88.7727H101.804C101.284 88.0142 100.884 87.1847 100.602 86.2841C100.324 85.3807 100.185 84.392 100.185 83.3182Z" fill="black"/>
<path d="M108.714 77.988L107.802 78.288C108.102 78.924 108.774 80.772 108.978 81.456L109.914 81.132C109.71 80.46 108.978 78.552 108.714 77.988ZM114.054 78.756L112.938 78.432C112.71 80.244 111.966 82.164 111.018 83.376C109.806 84.912 108.018 86.064 106.314 86.568L107.13 87.396C108.834 86.796 110.598 85.56 111.834 83.928C112.83 82.632 113.466 80.928 113.838 79.428C113.886 79.248 113.97 78.948 114.054 78.756ZM105.366 78.708L104.43 79.044C104.706 79.572 105.534 81.6 105.762 82.344L106.722 81.996C106.434 81.204 105.69 79.38 105.366 78.708Z" fill="black"/>
<path d="M118.322 83.3182C118.322 84.392 118.181 85.3807 117.9 86.2841C117.622 87.1847 117.223 88.0142 116.703 88.7727H115.816C116.021 88.4915 116.211 88.1449 116.387 87.733C116.566 87.3239 116.723 86.875 116.856 86.3864C116.99 85.8949 117.093 85.3878 117.167 84.8651C117.244 84.3395 117.282 83.8239 117.282 83.3182C117.282 82.642 117.217 81.956 117.086 81.2599C116.956 80.5639 116.779 79.9176 116.558 79.321C116.336 78.7244 116.089 78.2386 115.816 77.8636H116.703C117.223 78.6222 117.622 79.4531 117.9 80.3565C118.181 81.2571 118.322 82.2443 118.322 83.3182Z" fill="black"/>
<path d="M125.039 87V87.9375H119.585V87H125.039Z" fill="black"/>
<path d="M129.033 77.8636L126.221 88.3125H125.3L128.113 77.8636H129.033Z" fill="black"/>
<path d="M133.992 78.2727V79.125H130.004V78.2727H133.992Z" fill="black"/>
</svg>
