<svg width="119" height="109" viewBox="0 0 119 109" fill="none" xmlns="http://www.w3.org/2000/svg">
<path d="M74.9524 13.4059C74.9524 20.8098 68.6937 26.8119 60.9733 26.8119C53.2529 26.8119 46.9942 20.8098 46.9942 13.4059C46.9942 6.00204 53.2529 0 60.9733 0C68.6937 0 74.9524 6.00204 74.9524 13.4059Z" fill="#AAA398"/>
<path d="M74.9524 42.9842C74.9524 56.8518 68.6937 68.0937 60.9733 68.0937C53.2529 68.0937 46.9942 56.8518 46.9942 42.9842C46.9942 29.1166 53.2529 17.8747 60.9733 17.8747C68.6937 17.8747 74.9524 29.1166 74.9524 42.9842Z" fill="#AAA398"/>
<path d="M82.9282 33.184C78.271 37.6503 72.8096 39.6541 70.7299 37.6597C68.6503 35.6653 70.7398 30.4278 75.397 25.9616C80.0542 21.4953 85.5155 19.4915 87.5952 21.4859C89.6749 23.4803 87.5854 28.7177 82.9282 33.184Z" fill="#AAA398"/>
<path d="M45.8022 26.7212C50.4594 31.1875 52.5489 36.4249 50.4692 38.4193C48.3895 40.4137 42.9282 38.4099 38.271 33.9436C33.6138 29.4774 31.5243 24.24 33.604 22.2455C35.6837 20.2511 41.145 22.255 45.8022 26.7212Z" fill="#AAA398"/>
<path d="M15.5455 83.5455C15.4091 82.3939 14.8561 81.5 13.8864 80.8636C12.9167 80.2273 11.7273 79.9091 10.3182 79.9091C9.28788 79.9091 8.38636 80.0758 7.61364 80.4091C6.84849 80.7424 6.25 81.2008 5.81818 81.7841C5.39394 82.3674 5.18182 83.0303 5.18182 83.7727C5.18182 84.3939 5.32955 84.928 5.625 85.375C5.92803 85.8144 6.31439 86.1818 6.78409 86.4773C7.25379 86.7652 7.74621 87.0038 8.26136 87.1932C8.77652 87.375 9.25 87.5227 9.68182 87.6364L12.0455 88.2727C12.6515 88.4318 13.3258 88.6515 14.0682 88.9318C14.8182 89.2121 15.5341 89.5947 16.2159 90.0795C16.9053 90.5568 17.4735 91.1705 17.9205 91.9205C18.3674 92.6705 18.5909 93.5909 18.5909 94.6818C18.5909 95.9394 18.2614 97.0758 17.6023 98.0909C16.9508 99.1061 15.9962 99.9129 14.7386 100.511C13.4886 101.11 11.9697 101.409 10.1818 101.409C8.51515 101.409 7.07197 101.14 5.85227 100.602C4.64015 100.064 3.68561 99.3144 2.98864 98.3523C2.29924 97.3902 1.90909 96.2727 1.81818 95H4.72727C4.80303 95.8788 5.09848 96.6061 5.61364 97.1818C6.13636 97.75 6.79545 98.1742 7.59091 98.4545C8.39394 98.7273 9.25758 98.8636 10.1818 98.8636C11.2576 98.8636 12.2235 98.6894 13.0795 98.3409C13.9356 97.9848 14.6136 97.4924 15.1136 96.8636C15.6136 96.2273 15.8636 95.4848 15.8636 94.6364C15.8636 93.8636 15.6477 93.2348 15.2159 92.75C14.7841 92.2652 14.2159 91.8712 13.5114 91.5682C12.8068 91.2652 12.0455 91 11.2273 90.7727L8.36364 89.9545C6.54545 89.4318 5.10606 88.6856 4.04545 87.7159C2.98485 86.7462 2.45455 85.4773 2.45455 83.9091C2.45455 82.6061 2.80682 81.4697 3.51136 80.5C4.22348 79.5227 5.17803 78.7652 6.375 78.2273C7.57955 77.6818 8.92424 77.4091 10.4091 77.4091C11.9091 77.4091 13.2424 77.678 14.4091 78.2159C15.5758 78.7462 16.5 79.4735 17.1818 80.3977C17.8712 81.322 18.2348 82.3712 18.2727 83.5455H15.5455ZM25.5426 90.5V101H22.8608V77.7273H25.5426V86.2727H25.7699C26.179 85.3712 26.7926 84.6553 27.6108 84.125C28.4366 83.5871 29.535 83.3182 30.9062 83.3182C32.0956 83.3182 33.1373 83.5568 34.0312 84.0341C34.9252 84.5038 35.6184 85.2273 36.1108 86.2045C36.6108 87.1742 36.8608 88.4091 36.8608 89.9091V101H34.179V90.0909C34.179 88.7045 33.8191 87.6326 33.0994 86.875C32.3873 86.1098 31.3987 85.7273 30.1335 85.7273C29.2547 85.7273 28.4669 85.9129 27.7699 86.2841C27.0805 86.6553 26.535 87.197 26.1335 87.9091C25.7396 88.6212 25.5426 89.4848 25.5426 90.5ZM48.858 101.364C47.2822 101.364 45.8996 100.989 44.7102 100.239C43.5284 99.4886 42.6042 98.4394 41.9375 97.0909C41.2784 95.7424 40.9489 94.1667 40.9489 92.3636C40.9489 90.5455 41.2784 88.9583 41.9375 87.6023C42.6042 86.2462 43.5284 85.1932 44.7102 84.4432C45.8996 83.6932 47.2822 83.3182 48.858 83.3182C50.4337 83.3182 51.8125 83.6932 52.9943 84.4432C54.1837 85.1932 55.108 86.2462 55.767 87.6023C56.4337 88.9583 56.767 90.5455 56.767 92.3636C56.767 94.1667 56.4337 95.7424 55.767 97.0909C55.108 98.4394 54.1837 99.4886 52.9943 100.239C51.8125 100.989 50.4337 101.364 48.858 101.364ZM48.858 98.9545C50.0549 98.9545 51.0398 98.6477 51.8125 98.0341C52.5852 97.4205 53.1572 96.6136 53.5284 95.6136C53.8996 94.6136 54.0852 93.5303 54.0852 92.3636C54.0852 91.197 53.8996 90.1098 53.5284 89.1023C53.1572 88.0947 52.5852 87.2803 51.8125 86.6591C51.0398 86.0379 50.0549 85.7273 48.858 85.7273C47.661 85.7273 46.6761 86.0379 45.9034 86.6591C45.1307 87.2803 44.5587 88.0947 44.1875 89.1023C43.8163 90.1098 43.6307 91.197 43.6307 92.3636C43.6307 93.5303 43.8163 94.6136 44.1875 95.6136C44.5587 96.6136 45.1307 97.4205 45.9034 98.0341C46.6761 98.6477 47.661 98.9545 48.858 98.9545ZM71.8608 93.8636V83.5455H74.5426V101H71.8608V98.0455H71.679C71.2699 98.9318 70.6335 99.6856 69.7699 100.307C68.9063 100.92 67.8153 101.227 66.4972 101.227C65.4062 101.227 64.4366 100.989 63.5881 100.511C62.7396 100.027 62.0729 99.2992 61.5881 98.3295C61.1032 97.3523 60.8608 96.1212 60.8608 94.6364V83.5455H63.5426V94.4545C63.5426 95.7273 63.8987 96.7424 64.6108 97.5C65.3305 98.2576 66.2472 98.6364 67.3608 98.6364C68.0275 98.6364 68.7055 98.4659 69.3949 98.125C70.0919 97.7841 70.6752 97.2614 71.1449 96.5568C71.6222 95.8523 71.8608 94.9545 71.8608 93.8636ZM87.0455 83.5455V85.8182H78V83.5455H87.0455ZM80.6364 79.3636H83.3182V96C83.3182 96.7576 83.428 97.3258 83.6477 97.7045C83.875 98.0758 84.1629 98.3258 84.5114 98.4545C84.8674 98.5758 85.2424 98.6364 85.6364 98.6364C85.9318 98.6364 86.1742 98.6212 86.3636 98.5909C86.553 98.553 86.7045 98.5227 86.8182 98.5L87.3636 100.909C87.1818 100.977 86.928 101.045 86.6023 101.114C86.2765 101.189 85.8636 101.227 85.3636 101.227C84.6061 101.227 83.8636 101.064 83.1364 100.739C82.4167 100.413 81.8182 99.9167 81.3409 99.25C80.8712 98.5833 80.6364 97.7424 80.6364 96.7273V79.3636ZM98.2102 101.364C96.5284 101.364 95.0777 100.992 93.858 100.25C92.6458 99.5 91.7102 98.4545 91.0511 97.1136C90.3996 95.7652 90.0739 94.197 90.0739 92.4091C90.0739 90.6212 90.3996 89.0455 91.0511 87.6818C91.7102 86.3106 92.6269 85.2424 93.8011 84.4773C94.983 83.7045 96.3617 83.3182 97.9375 83.3182C98.8466 83.3182 99.7443 83.4697 100.631 83.7727C101.517 84.0758 102.324 84.5682 103.051 85.25C103.778 85.9242 104.358 86.8182 104.79 87.9318C105.222 89.0455 105.438 90.4167 105.438 92.0455V93.1818H91.983V90.8636H102.71C102.71 89.8788 102.513 89 102.119 88.2273C101.733 87.4545 101.18 86.8447 100.46 86.3977C99.7481 85.9508 98.9072 85.7273 97.9375 85.7273C96.8693 85.7273 95.9451 85.9924 95.1648 86.5227C94.392 87.0455 93.7973 87.7273 93.3807 88.5682C92.964 89.4091 92.7557 90.3106 92.7557 91.2727V92.8182C92.7557 94.1364 92.983 95.2538 93.4375 96.1705C93.8996 97.0795 94.5398 97.7727 95.358 98.25C96.1761 98.7197 97.1269 98.9545 98.2102 98.9545C98.9148 98.9545 99.5511 98.8561 100.119 98.6591C100.695 98.4545 101.191 98.1515 101.608 97.75C102.025 97.3409 102.347 96.8333 102.574 96.2273L105.165 96.9545C104.892 97.8333 104.434 98.6061 103.79 99.2727C103.146 99.9318 102.35 100.447 101.403 100.818C100.456 101.182 99.392 101.364 98.2102 101.364ZM109.517 101V83.5455H112.108V86.1818H112.29C112.608 85.3182 113.184 84.6174 114.017 84.0795C114.85 83.5417 115.79 83.2727 116.835 83.2727C117.032 83.2727 117.278 83.2765 117.574 83.2841C117.869 83.2917 118.093 83.303 118.244 83.3182V86.0455C118.153 86.0227 117.945 85.9886 117.619 85.9432C117.301 85.8902 116.964 85.8636 116.608 85.8636C115.759 85.8636 115.002 86.0417 114.335 86.3977C113.676 86.7462 113.153 87.2311 112.767 87.8523C112.388 88.4659 112.199 89.1667 112.199 89.9545V101H109.517Z" fill="#DFDFDF"/>
</svg>
